<mxfile host="app.diagrams.net" modified="2023-07-16T12:18:41.387Z" agent="Mozilla/5.0 (Windows NT 10.0; Win64; x64) AppleWebKit/537.36 (KHTML, like Gecko) Chrome/114.0.0.0 Safari/537.36 Edg/114.0.1823.82" etag="uPwLsqZ0_uiP-qTP-mEm" version="21.6.2" type="github">
  <diagram name="第 1 页" id="4KTFI6dIkRmabg9O_lOe">
    <mxGraphModel dx="1232" dy="705" grid="1" gridSize="10" guides="1" tooltips="1" connect="1" arrows="1" fold="1" page="1" pageScale="1" pageWidth="827" pageHeight="1169" math="1" shadow="0">
      <root>
        <mxCell id="0" />
        <mxCell id="1" parent="0" />
        <mxCell id="_jNH9uC8JHxy9Wg56hyx-3" value="" style="edgeStyle=orthogonalEdgeStyle;rounded=0;orthogonalLoop=1;jettySize=auto;html=1;" edge="1" parent="1" source="_jNH9uC8JHxy9Wg56hyx-1" target="_jNH9uC8JHxy9Wg56hyx-2">
          <mxGeometry relative="1" as="geometry" />
        </mxCell>
        <mxCell id="_jNH9uC8JHxy9Wg56hyx-1" value="" style="rounded=1;whiteSpace=wrap;html=1;" vertex="1" parent="1">
          <mxGeometry x="70" y="170" width="340" height="130" as="geometry" />
        </mxCell>
        <mxCell id="_jNH9uC8JHxy9Wg56hyx-5" value="" style="edgeStyle=orthogonalEdgeStyle;rounded=0;orthogonalLoop=1;jettySize=auto;html=1;" edge="1" parent="1" source="_jNH9uC8JHxy9Wg56hyx-2" target="_jNH9uC8JHxy9Wg56hyx-4">
          <mxGeometry relative="1" as="geometry" />
        </mxCell>
        <mxCell id="_jNH9uC8JHxy9Wg56hyx-2" value="" style="whiteSpace=wrap;html=1;rounded=1;" vertex="1" parent="1">
          <mxGeometry x="70" y="350" width="340" height="120" as="geometry" />
        </mxCell>
        <mxCell id="_jNH9uC8JHxy9Wg56hyx-45" style="edgeStyle=orthogonalEdgeStyle;rounded=0;orthogonalLoop=1;jettySize=auto;html=1;entryX=0.5;entryY=0;entryDx=0;entryDy=0;" edge="1" parent="1" source="_jNH9uC8JHxy9Wg56hyx-4" target="_jNH9uC8JHxy9Wg56hyx-6">
          <mxGeometry relative="1" as="geometry" />
        </mxCell>
        <mxCell id="_jNH9uC8JHxy9Wg56hyx-4" value="" style="whiteSpace=wrap;html=1;rounded=1;" vertex="1" parent="1">
          <mxGeometry x="70" y="524.5" width="340" height="125.5" as="geometry" />
        </mxCell>
        <mxCell id="_jNH9uC8JHxy9Wg56hyx-15" value="Cost Model" style="rounded=0;whiteSpace=wrap;html=1;" vertex="1" parent="1">
          <mxGeometry x="250" y="310" width="100" height="30" as="geometry" />
        </mxCell>
        <mxCell id="_jNH9uC8JHxy9Wg56hyx-16" value="Operator Dependence" style="rounded=0;whiteSpace=wrap;html=1;" vertex="1" parent="1">
          <mxGeometry x="249" y="480" width="160" height="30" as="geometry" />
        </mxCell>
        <mxCell id="_jNH9uC8JHxy9Wg56hyx-17" value="Data Layout" style="rounded=0;whiteSpace=wrap;html=1;" vertex="1" parent="1">
          <mxGeometry x="249" y="660" width="110" height="30" as="geometry" />
        </mxCell>
        <mxCell id="_jNH9uC8JHxy9Wg56hyx-34" value="Memory Cost" style="rounded=0;whiteSpace=wrap;html=1;" vertex="1" parent="1">
          <mxGeometry x="85" y="660" width="110" height="30" as="geometry" />
        </mxCell>
        <mxCell id="_jNH9uC8JHxy9Wg56hyx-36" value="&lt;h3 style=&quot;line-height: 100%;&quot;&gt;Model Structure Analyzer&lt;/h3&gt;" style="text;html=1;strokeColor=none;fillColor=none;spacing=5;spacingTop=-20;whiteSpace=wrap;overflow=hidden;rounded=0;" vertex="1" parent="1">
          <mxGeometry x="154" y="352" width="177" height="30" as="geometry" />
        </mxCell>
        <mxCell id="_jNH9uC8JHxy9Wg56hyx-38" value="&#xa;&lt;span style=&quot;color: rgb(0, 0, 0); font-family: Helvetica; font-size: 12px; font-style: normal; font-variant-ligatures: normal; font-variant-caps: normal; font-weight: 400; letter-spacing: normal; orphans: 2; text-align: left; text-indent: 0px; text-transform: none; widows: 2; word-spacing: 0px; -webkit-text-stroke-width: 0px; background-color: rgb(251, 251, 251); text-decoration-thickness: initial; text-decoration-style: initial; text-decoration-color: initial; float: none; display: inline !important;&quot;&gt;Find Data Layout Dependences&lt;/span&gt;&#xa;&#xa;" style="text;html=1;strokeColor=none;fillColor=none;align=center;verticalAlign=middle;whiteSpace=wrap;rounded=0;" vertex="1" parent="1">
          <mxGeometry x="130" y="372" width="230" height="30" as="geometry" />
        </mxCell>
        <mxCell id="_jNH9uC8JHxy9Wg56hyx-39" value="&lt;h3 style=&quot;line-height: 100%;&quot;&gt;CNN Model Loader&lt;/h3&gt;" style="text;html=1;strokeColor=none;fillColor=none;spacing=5;spacingTop=-20;whiteSpace=wrap;overflow=hidden;rounded=0;" vertex="1" parent="1">
          <mxGeometry x="170" y="174" width="140" height="20" as="geometry" />
        </mxCell>
        <mxCell id="_jNH9uC8JHxy9Wg56hyx-40" value="" style="group" vertex="1" connectable="0" parent="1">
          <mxGeometry x="70" y="700" width="340" height="100" as="geometry" />
        </mxCell>
        <mxCell id="_jNH9uC8JHxy9Wg56hyx-6" value="&lt;div style=&quot;text-align: justify;&quot;&gt;&lt;br&gt;&lt;/div&gt;" style="whiteSpace=wrap;html=1;rounded=1;" vertex="1" parent="_jNH9uC8JHxy9Wg56hyx-40">
          <mxGeometry width="340" height="100" as="geometry" />
        </mxCell>
        <mxCell id="_jNH9uC8JHxy9Wg56hyx-22" value="&lt;h3&gt;Loop-Based Optimizer&lt;/h3&gt;" style="text;html=1;strokeColor=none;fillColor=none;align=center;verticalAlign=middle;whiteSpace=wrap;rounded=0;" vertex="1" parent="_jNH9uC8JHxy9Wg56hyx-40">
          <mxGeometry x="64" y="-1" width="220" height="30" as="geometry" />
        </mxCell>
        <mxCell id="_jNH9uC8JHxy9Wg56hyx-30" value="" style="group" vertex="1" connectable="0" parent="_jNH9uC8JHxy9Wg56hyx-40">
          <mxGeometry x="5" y="35" width="330" height="50" as="geometry" />
        </mxCell>
        <mxCell id="_jNH9uC8JHxy9Wg56hyx-24" value="Transaction-Based Memory Cost Model (TMCM)" style="whiteSpace=wrap;html=1;rounded=1;" vertex="1" parent="_jNH9uC8JHxy9Wg56hyx-30">
          <mxGeometry x="200" width="130" height="50" as="geometry" />
        </mxCell>
        <mxCell id="_jNH9uC8JHxy9Wg56hyx-26" value="" style="edgeStyle=orthogonalEdgeStyle;rounded=0;orthogonalLoop=1;jettySize=auto;html=1;" edge="1" parent="_jNH9uC8JHxy9Wg56hyx-30" source="_jNH9uC8JHxy9Wg56hyx-25" target="_jNH9uC8JHxy9Wg56hyx-24">
          <mxGeometry relative="1" as="geometry" />
        </mxCell>
        <mxCell id="_jNH9uC8JHxy9Wg56hyx-27" value="Schedule&lt;br&gt;Data Layout" style="edgeLabel;html=1;align=center;verticalAlign=middle;resizable=0;points=[];labelBackgroundColor=none;" vertex="1" connectable="0" parent="_jNH9uC8JHxy9Wg56hyx-26">
          <mxGeometry x="0.1042" relative="1" as="geometry">
            <mxPoint x="-7" as="offset" />
          </mxGeometry>
        </mxCell>
        <mxCell id="_jNH9uC8JHxy9Wg56hyx-25" value="Schedule Searcher" style="whiteSpace=wrap;html=1;rounded=1;" vertex="1" parent="_jNH9uC8JHxy9Wg56hyx-30">
          <mxGeometry width="95" height="50" as="geometry" />
        </mxCell>
        <mxCell id="_jNH9uC8JHxy9Wg56hyx-43" value="&lt;h3 style=&quot;border-color: var(--border-color);&quot;&gt;Data Layout Generator&lt;/h3&gt;" style="text;html=1;strokeColor=none;fillColor=none;align=center;verticalAlign=middle;whiteSpace=wrap;rounded=0;" vertex="1" parent="1">
          <mxGeometry x="129" y="524" width="220" height="30" as="geometry" />
        </mxCell>
        <mxCell id="_jNH9uC8JHxy9Wg56hyx-47" value="" style="endArrow=classic;html=1;rounded=0;exitX=0.25;exitY=0;exitDx=0;exitDy=0;entryX=0.25;entryY=1;entryDx=0;entryDy=0;" edge="1" parent="1">
          <mxGeometry width="50" height="50" relative="1" as="geometry">
            <mxPoint x="210" y="700" as="sourcePoint" />
            <mxPoint x="210" y="649.9999999999998" as="targetPoint" />
          </mxGeometry>
        </mxCell>
      </root>
    </mxGraphModel>
  </diagram>
</mxfile>
